<svg xmlns="http://www.w3.org/2000/svg" viewBox="0 0 260 220" role="img" aria-label="Anatomy study illustration">
  <defs>
    <linearGradient id="skin" x1="0" x2="1" y1="0" y2="1"><stop stop-color="#f6c7be"/><stop offset="1" stop-color="#8f4a43"/></linearGradient>
    <linearGradient id="muscle" x1="0" x2="1" y1="0" y2="1"><stop stop-color="#f8d5cd"/><stop offset=".35" stop-color="#c7665b"/><stop offset="1" stop-color="#7d342f"/></linearGradient>
    <filter id="s" x="-20%" y="-20%" width="140%" height="140%"><feDropShadow dx="0" dy="14" stdDeviation="12" flood-color="#7f1d1d" flood-opacity=".2"/></filter>
  </defs>
  <rect width="260" height="220" rx="20" fill="#f8e3dd"/>
  <g filter="url(#s)">
    <path d="M105 18c-20 7-31 25-27 49 2 13 10 25 19 34v31c-29 8-49 27-60 60h162c-10-33-31-52-62-60v-31c14-11 23-28 23-46 0-30-22-48-55-37Z" fill="url(#skin)"/>
    <path d="M98 80c-21 21-36 54-42 101h37c2-39 8-73 22-100-6 2-11 2-17-1Z" fill="url(#muscle)" opacity=".9"/>
    <path d="M138 79c21 22 36 55 43 102h-38c-2-39-9-73-23-100 6 2 12 2 18-2Z" fill="url(#muscle)" opacity=".9"/>
    <path d="M83 184c9-35 23-66 43-91 20 25 35 56 43 91" fill="none" stroke="#7f1d1d" stroke-width="6" stroke-linecap="round" opacity=".55"/>
    <path d="M75 120c24 2 42 11 54 27 12-16 31-25 55-27" fill="none" stroke="#fff3ef" stroke-width="4" stroke-linecap="round" opacity=".58"/>
    <path d="M113 36c-10 9-14 22-13 39m38-37c8 10 11 23 9 38" fill="none" stroke="#7f1d1d" stroke-width="4" stroke-linecap="round" opacity=".45"/>
  </g>
</svg>
