<svg xmlns="http://www.w3.org/2000/svg" viewBox="0 0 512 512">
  <rect width="512" height="512" fill="#0d9488"/>
  <circle cx="256" cy="256" r="210" fill="#e6faf8"/>
  <g transform="translate(96 78) scale(3.34)">
    <defs>
      <linearGradient id="shield" x1="18" y1="8" x2="80" y2="88" gradientUnits="userSpaceOnUse">
        <stop offset="0" stop-color="#14b8a6"/>
        <stop offset=".55" stop-color="#0d9488"/>
        <stop offset="1" stop-color="#0c2340"/>
      </linearGradient>
    </defs>
    <path d="M48 7.5 16 19.7v23.7c0 21.4 13.8 39.5 32 45.1 18.2-5.6 32-23.7 32-45.1V19.7L48 7.5Z" fill="url(#shield)"/>
    <path d="M43.2 25.8h9.6c1.9 0 3.4 1.5 3.4 3.4v13.2h13.2c1.9 0 3.4 1.5 3.4 3.4v9.6c0 1.9-1.5 3.4-3.4 3.4H56.2V72c0 1.9-1.5 3.4-3.4 3.4h-9.6c-1.9 0-3.4-1.5-3.4-3.4V58.8H26.6c-1.9 0-3.4-1.5-3.4-3.4v-9.6c0-1.9 1.5-3.4 3.4-3.4h13.2V29.2c0-1.9 1.5-3.4 3.4-3.4Z" fill="#fff"/>
  </g>
</svg>
